<svg width="1440" height="1263" viewBox="0 0 1440 1263" fill="none" xmlns="http://www.w3.org/2000/svg">
<g opacity="0.2">
<mask id="mask0_9_1036" style="mask-type:luminance" maskUnits="userSpaceOnUse" x="0" y="0" width="1440" height="1263">
<path d="M1440 0H0V1263H1440V0Z" fill="white"/>
</mask>
<g mask="url(#mask0_9_1036)">
<g opacity="0.3">
<path d="M646.272 790.319L645.696 792.444L188.352 794.568H184.896L440.64 497.136L441.792 496.074L646.272 789.788V790.319ZM643.968 790.319L441.792 499.261L188.928 792.444L643.968 790.319Z" fill="rgba(178, 18, 34, 1)"/>
<path d="M441.792 497.136H442.944L187.776 794.037H187.2H185.472L163.584 349.483V347.889L442.368 497.667L441.792 497.136ZM439.488 498.199L307.008 427.027H306.432L165.312 351.076L187.2 791.381L440.064 498.73L439.488 498.199Z" fill="rgba(178, 18, 34, 1)"/>
<path d="M21.312 134.907L165.312 348.42L166.464 350.545L-237.312 240.601H-238.464L-161.28 82.856L-70.272 -0.531128L21.312 134.907ZM-235.008 239.008L162.432 347.358L20.736 138.093H20.16V137.031L-70.272 2.65564L-158.976 84.4494L-235.584 239.539L-235.008 239.008Z" fill="rgba(178, 18, 34, 1)"/>
<path d="M539.712 143.936L298.944 225.198H297.216L317.952 24.4319V22.8385L539.136 143.936H539.712ZM535.104 143.936L320.256 25.4942L300.096 222.543L535.104 143.405V143.936Z" fill="rgba(178, 18, 34, 1)"/>
<path d="M555.84 -50.4572H556.992L538.56 143.405L536.832 144.467L318.528 24.9631L316.8 23.9008L555.84 -50.4572ZM555.264 -48.3327L321.408 24.4319L536.832 142.342L555.264 -48.3327Z" fill="rgba(178, 18, 34, 1)"/>
<path d="M1418.11 871.582H1418.69L1563.26 1209.91L1564.42 1212.57L1128.38 973.027L1126.66 971.965L1417.54 871.582H1418.11ZM1418.11 873.706L1132.42 972.496L1561.54 1207.79L1418.69 873.706H1418.11Z" fill="rgba(178, 18, 34, 1)"/>
<path d="M855.936 226.261L858.24 225.198L646.272 790.85L645.12 794.037L565.632 376.57L855.936 226.261ZM854.784 228.916L567.936 376.57L645.696 786.601L854.784 228.916Z" fill="rgba(178, 18, 34, 1)"/>
<path d="M1562.69 1209.38H1563.84L1642.75 1445.73V1447.33L1202.11 1415.99H1199.23L1563.26 1209.91L1562.69 1209.38ZM1562.69 1211.5L1204.99 1413.86L1640.45 1444.67L1562.69 1211.5Z" fill="rgba(178, 18, 34, 1)"/>
<path d="M1563.26 1209.38H1564.99L1202.11 1415.46L1200.96 1416.52L1128.38 972.496V970.372L1563.26 1209.38ZM1560.96 1210.44L1130.69 974.09L1202.11 1413.33L1560.96 1210.44Z" fill="rgba(178, 18, 34, 1)"/>
<path d="M396.288 -197.049L399.168 -199.704L320.256 24.4319V25.4942L108.864 -98.7899L107.136 -99.8521L396.288 -197.049ZM395.136 -194.393L111.744 -99.321L318.528 22.8385L395.136 -194.924V-194.393Z" fill="rgba(178, 18, 34, 1)"/>
<path d="M1407.74 735.082H1408.9L1410.05 736.144L1419.26 873.175L1124.93 975.152L1407.17 735.082H1407.74ZM1408.32 737.206L1134.14 970.372L1417.54 872.644L1408.32 737.737V737.206Z" fill="rgba(178, 18, 34, 1)"/>
<path d="M1126.66 475.891H1127.81H1128.96L1130.69 971.965V973.559L643.392 791.381L1126.66 475.36V475.891ZM1126.66 478.547L648 791.381L1128.38 970.903L1126.08 478.547H1126.66Z" fill="rgba(178, 18, 34, 1)"/>
<path d="M704.448 86.0428H706.752L568.512 376.039V377.101L298.944 224.136L297.216 223.074L705.024 85.5117L704.448 86.0428ZM703.296 88.6985L539.136 143.936V145.529L537.408 144.467L301.248 224.136L566.784 374.977L703.296 89.2296V88.6985Z" fill="rgba(178, 18, 34, 1)"/>
<path d="M1409.47 735.082L1411.2 736.675H1408.9L1127.23 975.683L1229.76 681.969V680.376L1409.47 734.551V735.082ZM1407.17 735.613L1231.49 684.094L1132.42 969.31L1407.17 735.613Z" fill="rgba(178, 18, 34, 1)"/>
<path d="M1130.11 971.434H1131.84L831.168 1158.39H830.016L645.12 791.913L643.968 789.788L1130.11 971.434ZM1127.81 972.496L648 792.975L830.592 1156.27L1127.23 972.496H1127.81Z" fill="rgba(178, 18, 34, 1)"/>
<path d="M320.832 23.9008L133.056 172.086L131.328 173.148L107.712 -99.8521V-101.977L320.832 23.9008ZM317.376 23.9008L110.592 -97.7276L133.632 169.961L317.376 24.4319V23.9008Z" fill="rgba(178, 18, 34, 1)"/>
<path d="M566.784 374.977H570.24L442.368 498.73H441.792L307.008 426.496L304.704 425.434L566.784 374.977ZM563.904 377.632L309.888 426.496L441.216 497.136L563.904 377.632Z" fill="rgba(178, 18, 34, 1)"/>
<path d="M646.272 790.319V793.506L440.64 498.73L566.784 375.508L567.936 374.446L646.848 790.319H646.272ZM643.968 787.132L566.784 378.164L443.52 498.199L644.544 787.132H643.968Z" fill="rgba(178, 18, 34, 1)"/>
<path d="M318.528 23.3697L320.256 21.7763L299.52 224.136V225.199L132.48 172.617H130.752L318.528 23.3697ZM317.952 26.5565L134.784 171.555L297.792 223.074L317.952 26.5565Z" fill="rgba(178, 18, 34, 1)"/>
<path d="M298.944 223.074H300.672L165.312 350.014H164.736L20.16 137.031L18.432 134.907L298.944 223.074ZM296.64 224.136L23.616 138.093L164.736 347.358L296.64 224.136Z" fill="rgba(178, 18, 34, 1)"/>
<path d="M308.16 425.965V427.558L163.008 348.951L297.792 222.543L299.52 220.949L308.16 425.434V425.965ZM305.856 424.372L297.792 226.261L165.888 348.951L305.856 424.372Z" fill="rgba(178, 18, 34, 1)"/>
<path d="M567.36 374.977L569.664 376.57L307.584 427.027H306.432L297.792 224.136V222.543L567.936 375.508L567.36 374.977ZM563.904 374.977L299.52 225.198L307.584 424.372L563.328 374.977H563.904Z" fill="rgba(178, 18, 34, 1)"/>
<path d="M1128.96 971.434L1130.11 970.372L1202.69 1414.39V1416.52L829.44 1157.86L828.288 1156.8L1128.96 970.372V971.434ZM1128.96 974.09L832.32 1157.86L1200.38 1412.8L1128.96 974.09Z" fill="rgba(178, 18, 34, 1)"/>
<path d="M108.864 -100.383H110.592L21.888 136.5V138.625L-71.424 1.59343L6.91199 -71.7023L108.864 -100.383ZM20.736 134.376L107.712 -98.2587L8.06399 -70.1089L-69.12 1.0623L20.736 134.376Z" fill="rgba(178, 18, 34, 1)"/>
<path d="M133.632 171.555V173.148L20.736 137.562H19.584L108.288 -99.8521L110.016 -104.101L133.632 171.555ZM131.328 170.492L108.864 -95.0719L22.464 135.969L131.904 170.492H131.328Z" fill="rgba(178, 18, 34, 1)"/>
<path d="M174.528 359.574C179.712 354.794 179.712 347.358 174.528 342.578C169.344 337.798 161.28 337.798 156.096 342.578C150.912 347.358 150.912 354.794 156.096 359.574C161.28 364.354 169.344 364.354 174.528 359.574Z" fill="rgba(178, 18, 34, 1)"/>
<path d="M307.584 231.041C312.768 226.261 312.768 218.825 307.584 214.045C302.4 209.265 294.336 209.265 289.152 214.045C283.968 218.825 283.968 226.261 289.152 231.041C294.336 235.821 302.4 235.821 307.584 231.041Z" fill="rgba(178, 18, 34, 1)"/>
<path d="M328.896 35.0545C334.08 30.2743 334.08 22.8385 328.896 18.0584C323.712 13.2782 315.648 13.2782 310.464 18.0584C305.28 22.8385 305.28 30.2743 310.464 35.0545C315.648 39.8347 323.712 39.8347 328.896 35.0545Z" fill="rgba(178, 18, 34, 1)"/>
<path d="M544.32 150.309C549.504 145.529 549.504 138.093 544.32 133.313C539.136 128.533 531.072 128.533 525.888 133.313C520.704 138.093 520.704 145.529 525.888 150.309C531.072 155.089 539.136 155.089 544.32 150.309Z" fill="rgba(178, 18, 34, 1)"/>
<path d="M315.648 436.056C320.832 431.276 320.832 423.84 315.648 419.06C310.464 414.28 302.4 414.28 297.216 419.06C292.032 423.84 292.032 431.276 297.216 436.056C302.4 440.837 310.464 440.837 315.648 436.056Z" fill="rgba(178, 18, 34, 1)"/>
<path d="M452.16 506.697C457.344 501.916 457.344 494.481 452.16 489.7C446.976 484.92 438.912 484.92 433.728 489.7C428.544 494.481 428.544 501.916 433.728 506.697C438.912 511.477 446.976 511.477 452.16 506.697Z" fill="rgba(178, 18, 34, 1)"/>
<path d="M574.848 385.068C580.032 380.288 580.032 372.852 574.848 368.072C569.664 363.292 561.6 363.292 556.416 368.072C551.232 372.852 551.232 380.288 556.416 385.068C561.6 389.848 569.664 389.848 574.848 385.068Z" fill="rgba(178, 18, 34, 1)"/>
<path d="M864.576 235.29C869.76 230.51 869.76 223.074 864.576 218.294C859.392 213.514 851.328 213.514 846.144 218.294C840.96 223.074 840.96 230.51 846.144 235.29C851.328 240.07 859.392 240.07 864.576 235.29Z" fill="rgba(178, 18, 34, 1)"/>
<path d="M713.664 94.5409C718.848 89.7608 718.848 82.325 713.664 77.5448C708.48 72.7646 700.416 72.7646 695.232 77.5448C690.048 82.325 690.048 89.7608 695.232 94.5409C700.416 99.3211 708.48 99.3211 713.664 94.5409Z" fill="rgba(178, 18, 34, 1)"/>
<path d="M1135.87 483.327C1139.9 479.609 1140.48 473.236 1135.87 468.986C1131.84 465.269 1124.93 465.269 1120.32 468.986C1116.29 472.704 1115.71 479.078 1120.32 482.796C1124.93 486.514 1131.26 486.514 1135.3 482.796L1135.87 483.327Z" fill="rgba(178, 18, 34, 1)"/>
<path d="M1238.4 688.342C1242.43 684.625 1243.01 678.251 1238.4 674.002C1234.37 670.284 1227.46 670.284 1222.85 674.002C1218.82 677.72 1218.82 684.093 1222.85 687.811C1226.88 691.529 1233.79 691.529 1238.4 687.811V688.342Z" fill="rgba(178, 18, 34, 1)"/>
<path d="M1418.11 743.049C1422.14 739.331 1422.14 732.957 1418.11 729.239C1414.08 725.522 1407.17 725.522 1402.56 729.239C1398.53 732.957 1398.53 739.331 1402.56 743.58C1406.59 747.298 1413.5 747.298 1418.11 743.58V743.049Z" fill="rgba(178, 18, 34, 1)"/>
<path d="M1425.6 880.611C1429.63 876.893 1429.63 870.52 1425.6 866.271C1421.57 862.553 1414.66 862.553 1410.62 866.271C1406.59 869.988 1406.02 876.362 1410.62 880.611C1414.66 884.329 1421.57 884.329 1426.18 880.611H1425.6Z" fill="rgba(178, 18, 34, 1)"/>
<path d="M655.488 800.411C660.672 795.63 660.672 788.195 655.488 783.415C650.304 778.634 642.24 778.634 637.056 783.415C631.872 788.195 631.872 795.63 637.056 800.411C642.24 805.191 650.304 805.191 655.488 800.411Z" fill="rgba(178, 18, 34, 1)"/>
<path d="M1141.06 980.994C1146.24 976.214 1146.24 968.778 1141.06 963.998C1135.87 959.218 1127.81 959.218 1122.62 963.998C1117.44 968.778 1117.44 976.214 1122.62 980.994C1127.81 985.774 1135.87 985.774 1141.06 980.994Z" fill="rgba(178, 18, 34, 1)"/>
<path d="M141.12 182.177C146.304 177.397 146.304 169.961 141.12 165.181C135.936 160.401 127.872 160.401 122.688 165.181C117.504 169.961 117.504 177.397 122.688 182.177C127.872 186.957 135.936 186.957 141.12 182.177Z" fill="rgba(178, 18, 34, 1)"/>
<path d="M29.376 144.998C34.56 140.218 34.56 132.782 29.376 128.002C24.192 123.222 16.128 123.222 10.944 128.002C5.76003 132.782 5.76003 140.218 10.944 144.998C16.128 149.778 24.192 149.778 29.376 144.998Z" fill="rgba(178, 18, 34, 1)"/>
<path d="M197.568 803.597C202.752 798.817 202.752 791.381 197.568 786.601C192.384 781.821 184.32 781.821 179.136 786.601C173.952 791.381 173.952 798.817 179.136 803.597C184.32 808.378 192.384 808.378 197.568 803.597Z" fill="rgba(178, 18, 34, 1)"/>
<path d="M840.96 1166.89C846.144 1162.11 846.144 1154.67 840.96 1149.89C835.776 1145.11 827.712 1145.11 822.528 1149.89C817.344 1154.67 817.344 1162.11 822.528 1166.89C827.712 1171.67 835.776 1171.67 840.96 1166.89Z" fill="rgba(178, 18, 34, 1)"/>
<path d="M1417.54 873.175L1416.96 872.113L1418.11 871.582L1420.99 872.113L1419.84 872.644L1562.69 1207.25L1635.26 946.471L1634.69 945.94L1637.57 946.471L1563.84 1210.44L1563.26 1213.63L1417.54 873.175Z" fill="rgba(178, 18, 34, 1)"/>
<path d="M1635.84 948.064L1418.69 873.706L1419.26 872.113L1637.57 946.471L1635.84 948.064Z" fill="rgba(178, 18, 34, 1)"/>
</g>
<path d="M637.056 388.786L639.36 391.442L371.52 318.677H370.944L340.416 103.57V100.383L637.056 388.255V388.786ZM633.024 387.724L342.72 106.226L373.248 316.553L633.024 386.662V387.724Z" fill="rgba(178, 18, 34, 1)"/>
<path d="M1088.06 386.661H1089.22L1046.59 500.323V501.385L638.208 390.911L631.872 389.317L1087.49 386.661H1088.06ZM1086.91 388.786L646.272 390.911L1046.02 498.73L1087.49 388.255L1086.91 388.786Z" fill="rgba(178, 18, 34, 1)"/>
<path d="M615.744 -48.3327H618.048L342.144 104.632H340.992L220.032 -154.558L221.184 -156.152L615.744 -48.3327ZM612.864 -47.2704L222.336 -153.496L342.144 102.508L612.864 -47.2704Z" fill="rgba(178, 18, 34, 1)"/>
<path d="M614.592 -48.3327L616.32 -49.3949L637.632 389.317V390.379H635.328L340.992 104.101L339.84 103.039L614.592 -48.3327ZM614.592 -46.2082L343.296 103.57L635.904 387.193L614.592 -46.2082Z" fill="rgba(178, 18, 34, 1)"/>
<path d="M636.48 388.255H637.632L639.36 388.786L1046.02 498.73L1051.2 499.792L584.64 537.502L371.52 318.146V315.49L637.056 387.193L636.48 388.255ZM1040.83 499.261L639.36 390.379H637.056L635.904 389.848L374.976 319.208L585.792 535.909L1040.83 499.261Z" fill="rgba(178, 18, 34, 1)"/>
<path d="M340.992 103.039H342.144L373.248 318.146V319.739L370.368 318.677L168.192 177.928L167.04 176.866L340.992 103.039ZM340.992 105.163L171.648 177.397L371.52 316.553L341.568 105.163H340.992Z" fill="rgba(178, 18, 34, 1)"/>
<path d="M343.872 107.288L161.856 -36.6479H161.28L220.032 -155.621L221.184 -157.214L344.448 107.288H343.872ZM338.688 100.914L220.608 -152.965L163.584 -37.7101L338.112 99.8521L338.688 100.914Z" fill="rgba(178, 18, 34, 1)"/>
<path d="M370.944 316.553L372.672 317.615L380.16 529.535V531.66L32.832 226.792L29.952 224.136L371.52 316.553H370.944ZM370.944 318.677H370.368L36.864 228.385L377.856 527.942L370.368 319.208L370.944 318.677Z" fill="rgba(178, 18, 34, 1)"/>
<path d="M169.92 176.866V181.646L114.048 63.7354L111.744 64.7977L164.16 -41.428L170.496 176.335L169.92 176.866ZM167.616 172.086L161.856 -32.93L115.2 62.142L167.616 172.086Z" fill="rgba(178, 18, 34, 1)"/>
<path d="M342.144 103.039L343.296 104.101L169.344 177.928H168.192L161.856 -36.6479V-38.7724L342.144 103.039ZM339.84 103.57L163.584 -35.0545L169.344 175.272L339.264 103.039L339.84 103.57Z" fill="rgba(178, 18, 34, 1)"/>
<path d="M112.896 62.142L115.2 61.0798L33.984 226.792L-288 243.788L112.896 62.142ZM111.168 64.7977L-278.208 241.132L32.256 225.198L111.744 64.7977H111.168Z" fill="rgba(178, 18, 34, 1)"/>
<path d="M33.408 225.198H34.56L83.52 747.829V751.547L-283.968 242.726L-285.12 241.663L32.832 225.198H33.408ZM32.832 227.323L-280.512 243.257L81.216 744.111L32.256 227.323H32.832Z" fill="rgba(178, 18, 34, 1)"/>
<path d="M585.216 536.44H585.792L678.528 793.506L377.856 529.535L585.216 536.971V536.44ZM584.064 538.033L382.464 531.129L673.92 786.601L584.064 538.033Z" fill="rgba(178, 18, 34, 1)"/>
<path d="M380.16 529.004L676.8 789.257L677.952 790.319L448.704 917.259H447.552L32.832 226.792L29.952 221.481L380.736 529.004H380.16ZM674.496 789.788L379.584 531.128H378.432V530.066L37.44 231.041L448.128 915.134L674.496 789.788Z" fill="rgba(178, 18, 34, 1)"/>
<path d="M1048.9 498.73L676.8 790.85L675.648 791.913L584.064 537.502V536.44L1048.9 498.73ZM1042.56 501.385L586.368 538.564L676.8 789.257L1043.14 501.916L1042.56 501.385Z" fill="rgba(178, 18, 34, 1)"/>
<path d="M675.648 789.257L679.104 787.664L569.664 966.654L447.552 917.79L445.824 916.728L675.648 789.257ZM673.344 792.975L449.856 916.728L568.512 965.06L673.344 793.506V792.975Z" fill="rgba(178, 18, 34, 1)"/>
<path d="M871.488 1088.28L873.216 1090.41L568.512 966.654H567.36L675.072 789.788L676.224 788.195L871.488 1088.28ZM868.032 1086.69L676.224 791.913L570.24 965.06L868.032 1086.69Z" fill="rgba(178, 18, 34, 1)"/>
<path d="M1271.23 747.298L1272.38 748.36L1056.38 763.763H1055.23L1045.44 499.792V497.136L1271.81 747.298H1271.23ZM1268.35 747.298L1047.17 502.979L1056.96 762.7L1268.35 747.829V747.298Z" fill="rgba(178, 18, 34, 1)"/>
<path d="M1055.81 762.169H1056.96L1180.8 1080.85L1180.22 1082.97L675.648 790.85L672.768 789.257L1055.23 762.169H1055.81ZM1055.81 764.294L679.68 790.85L1178.5 1079.78L1055.23 764.294H1055.81Z" fill="rgba(178, 18, 34, 1)"/>
<path d="M1270.08 746.767H1271.23L1180.22 1081.38V1084.03L1054.66 763.232V762.169L1269.5 746.767H1270.08ZM1268.93 748.891L1057.54 763.763L1179.65 1077.66L1268.93 748.891Z" fill="rgba(178, 18, 34, 1)"/>
<path d="M1045.44 499.261L1047.17 497.667L1057.54 762.7V763.763L676.8 790.85H673.92L1046.02 499.261H1045.44ZM1045.44 501.916L679.68 789.257L1055.23 762.7L1045.44 502.448V501.916Z" fill="rgba(178, 18, 34, 1)"/>
<path d="M585.792 536.44L587.52 538.033L380.16 531.128L379.008 530.066L371.52 318.146V315.49L586.368 536.44H585.792ZM380.736 529.004L582.912 535.909L373.248 320.27L380.16 528.473L380.736 529.004Z" fill="rgba(178, 18, 34, 1)"/>
<path d="M448.704 916.197L450.432 918.852L81.792 748.891L32.256 226.261V221.481L448.704 915.665V916.197ZM445.248 914.603L34.56 230.51L83.52 747.298L445.824 914.072L445.248 914.603Z" fill="rgba(178, 18, 34, 1)"/>
<path d="M570.24 965.061L516.096 1053.76L514.944 1055.35L446.976 916.728L445.824 914.603L570.24 965.061ZM567.36 966.123L449.856 918.321L515.52 1051.63L567.36 966.654V966.123Z" fill="rgba(178, 18, 34, 1)"/>
<path d="M1089.22 386.661L1271.23 747.298L1274.11 753.671L1044.86 500.323L1086.91 387.193L1088.64 386.661H1089.22ZM1266.05 741.986L1088.64 389.317L1047.17 499.792L1266.05 741.986Z" fill="rgba(178, 18, 34, 1)"/>
<path d="M1180.22 1080.85H1180.8L1088.06 1421.83V1423.96L869.76 1088.81L675.072 790.319L672.768 787.132L1179.65 1080.85H1180.22ZM873.216 1087.75L872.064 1088.81L1086.91 1419.71L1178.5 1082.44L679.104 793.506L870.912 1088.28H872.64L873.216 1087.75Z" fill="rgba(178, 18, 34, 1)"/>
<path d="M1636.42 1000.11L1638.14 1001.18L1180.22 1082.97H1179.07V1081.38L1269.5 746.235L1636.42 999.584V1000.11ZM1633.54 1000.11L1271.23 749.422L1181.38 1080.85L1633.54 1000.11Z" fill="rgba(178, 18, 34, 1)"/>
<path d="M1635.26 1000.11H1635.84L1784.45 1293.3V1294.89H1783.3L1179.65 1083.5L1176.19 1082.44L1635.26 1000.65V1000.11ZM1635.26 1002.24L1183.68 1082.97L1781.57 1292.77L1634.69 1002.77L1635.26 1002.24Z" fill="rgba(178, 18, 34, 1)"/>
<path d="M1180.22 1080.85L1787.33 1293.83L1088.06 1422.89H1086.34L1179.07 1081.91V1080.85H1180.8H1180.22ZM1779.84 1293.3L1180.22 1082.97L1088.64 1420.77L1779.84 1293.3Z" fill="rgba(178, 18, 34, 1)"/>
<path d="M168.192 176.335L370.944 317.084L375.552 320.27L33.408 227.323L30.528 226.261L168.768 176.335H168.192ZM168.192 178.459L36.288 226.261L365.76 314.959L168.192 177.928V178.459Z" fill="rgba(178, 18, 34, 1)"/>
<path d="M114.624 61.611L169.92 176.866V177.928L33.984 227.323L31.68 228.385L112.896 62.6732L115.2 61.611H114.624ZM167.04 176.866L113.472 64.7978L35.136 224.667L167.04 176.866Z" fill="rgba(178, 18, 34, 1)"/>
<path d="M161.856 -37.7101L165.312 -40.8969L114.048 63.2043L-58.752 141.811L161.856 -37.7101ZM159.552 -33.4611L-46.08 134.376L112.896 62.1421L160.128 -33.4611H159.552Z" fill="rgba(178, 18, 34, 1)"/>
<path d="M91.584 755.265C96.768 750.485 96.768 743.58 91.584 738.8C86.4 734.02 78.336 734.02 73.728 738.8C68.544 743.58 68.544 751.016 73.728 755.265C78.912 760.045 86.976 760.045 91.584 755.265Z" fill="rgba(178, 18, 34, 1)"/>
<path d="M46.08 235.821C51.264 231.041 51.264 223.605 46.08 219.356C40.896 214.576 32.832 214.576 28.224 219.356C23.04 224.136 23.04 231.572 28.224 235.821C33.408 240.601 41.472 240.601 46.08 235.821Z" fill="rgba(178, 18, 34, 1)"/>
<path d="M178.56 186.426C183.744 181.646 183.744 174.741 178.56 169.961C173.376 165.181 165.312 165.181 160.704 169.961C155.52 174.741 155.52 181.646 160.704 186.426C165.888 191.206 173.952 191.206 178.56 186.426Z" fill="rgba(178, 18, 34, 1)"/>
<path d="M391.68 539.626C396.864 534.846 396.864 527.411 391.68 523.162C386.496 518.381 378.432 518.381 373.824 523.162C368.64 527.942 368.64 535.377 373.824 539.626C379.008 544.407 387.072 544.407 391.68 539.626Z" fill="rgba(178, 18, 34, 1)"/>
<path d="M380.736 328.237C385.92 323.457 385.92 316.022 380.736 311.772C375.552 306.992 367.488 307.523 362.88 311.772C357.696 316.553 357.696 323.988 362.88 328.237C368.064 333.018 376.128 333.018 380.736 328.237Z" fill="rgba(178, 18, 34, 1)"/>
<path d="M349.056 108.881C354.24 104.101 354.24 97.1965 349.056 92.4164C343.872 87.6362 335.808 87.6362 331.2 92.4164C326.016 97.1965 326.016 104.632 331.2 108.881C336.384 113.661 344.448 113.661 349.056 108.881Z" fill="rgba(178, 18, 34, 1)"/>
<path d="M593.28 546.531C598.464 541.751 598.464 534.315 593.28 530.066C588.096 525.286 580.032 525.286 575.424 530.066C570.24 534.846 570.24 542.282 575.424 546.531C580.608 551.311 588.672 551.311 593.28 546.531Z" fill="rgba(178, 18, 34, 1)"/>
<path d="M645.696 396.753C650.88 391.973 650.88 384.537 645.696 380.288C640.512 375.508 632.448 375.508 627.84 380.288C622.656 385.068 622.656 391.973 627.84 396.753C633.024 401.533 641.088 401.533 645.696 396.753Z" fill="rgba(178, 18, 34, 1)"/>
<path d="M1051.78 509.352C1056.96 504.572 1056.96 497.667 1051.78 492.887C1046.59 488.107 1038.53 488.107 1033.92 492.887C1028.74 497.667 1028.74 505.103 1033.92 509.352C1039.1 514.132 1047.17 514.132 1051.78 509.352Z" fill="rgba(178, 18, 34, 1)"/>
<path d="M1096.13 397.284C1100.74 392.504 1101.31 385.599 1096.13 380.819C1090.94 376.039 1082.88 376.039 1078.27 380.819C1073.09 385.599 1073.09 393.035 1078.27 397.284C1083.46 402.064 1091.52 402.064 1096.13 397.284Z" fill="rgba(178, 18, 34, 1)"/>
<path d="M1065.6 770.667C1070.21 765.887 1070.78 758.982 1065.6 754.202C1060.42 749.422 1052.35 749.422 1047.74 754.202C1042.56 758.982 1042.56 766.418 1047.74 770.667C1052.93 775.447 1060.99 775.447 1065.6 770.667Z" fill="rgba(178, 18, 34, 1)"/>
<path d="M1276.99 755.265C1281.6 750.485 1282.18 743.58 1276.99 738.8C1271.81 734.02 1263.74 734.02 1259.14 738.8C1253.95 743.58 1253.95 750.485 1259.14 755.265C1264.32 760.045 1272.38 760.045 1276.99 755.265Z" fill="rgba(178, 18, 34, 1)"/>
<path d="M1189.44 1091.47C1194.62 1086.69 1194.62 1079.25 1189.44 1075C1184.26 1070.22 1176.19 1070.22 1171.01 1075C1166.4 1079.78 1166.4 1086.69 1171.01 1091.47C1176.19 1096.25 1184.26 1096.25 1188.86 1091.47H1189.44Z" fill="rgba(178, 18, 34, 1)"/>
<path d="M459.072 924.695C464.256 919.915 464.256 912.479 459.072 908.23C453.888 903.45 445.824 903.45 441.216 908.23C436.032 913.01 436.032 919.915 441.216 924.695C446.4 929.475 454.464 929.475 459.072 924.695Z" fill="rgba(178, 18, 34, 1)"/>
<path d="M523.584 1063.85C528.768 1059.07 528.768 1051.63 523.584 1047.39C518.4 1042.61 510.336 1042.61 505.728 1047.39C500.544 1052.17 500.544 1059.07 505.728 1063.85C510.912 1068.63 518.976 1068.63 523.584 1063.85Z" fill="rgba(178, 18, 34, 1)"/>
<path d="M878.976 1097.84C884.16 1093.06 884.16 1086.16 878.976 1081.38C873.792 1076.6 865.728 1076.6 861.12 1081.38C855.936 1086.16 855.936 1093.59 861.12 1097.84C866.304 1102.09 874.368 1102.62 878.976 1097.84Z" fill="rgba(178, 18, 34, 1)"/>
<path d="M686.592 799.348C691.776 794.568 691.776 787.664 686.592 782.883C681.408 778.103 673.344 778.103 668.736 782.883C663.552 787.664 663.552 795.099 668.736 799.348C673.92 804.129 681.984 804.129 686.592 799.348Z" fill="rgba(178, 18, 34, 1)"/>
</g>
</g>
</svg>
