<svg width="131" height="48" viewBox="0 0 131 48" fill="none" xmlns="http://www.w3.org/2000/svg">
<path d="M68.2563 24.0406C68.2943 24.0806 68.3239 24.1279 68.3433 24.1798C68.3627 24.2316 68.3716 24.2869 68.3694 24.3423V26.3844L69.8625 27.1314C69.917 27.1571 69.9625 27.1988 69.993 27.2511C70.0236 27.3034 70.0377 27.3638 70.0336 27.4244V30.486C70.0351 30.54 70.0259 30.5938 70.0065 30.6441C69.9871 30.6944 69.9578 30.7403 69.9205 30.779L68.668 32.0432C68.6285 32.0817 68.5816 32.1119 68.5303 32.1318C68.479 32.1516 68.4243 32.1609 68.3694 32.1589H58.3334C58.0624 32.1589 57.9348 32.0124 57.9348 31.7194V22.6372C57.9348 22.3648 58.0624 22.2212 58.3334 22.2212H66.1427C66.2174 22.2191 66.2918 22.2333 66.3606 22.2628C66.4294 22.2924 66.491 22.3367 66.5413 22.3926L68.2563 24.0406ZM65.3961 23.8252C65.3607 23.7902 65.3184 23.7632 65.2719 23.7458C65.2255 23.7283 65.1759 23.721 65.1265 23.7242H60.879C60.7225 23.7242 60.6369 23.8106 60.6369 23.9981V26.4122H66.2717V24.8316C66.2709 24.7828 66.2604 24.7347 66.2407 24.6901C66.221 24.6456 66.1926 24.6055 66.1572 24.5723L65.3961 23.8252ZM66.5558 27.4332H60.6369V30.363C60.6369 30.549 60.7225 30.6354 60.8935 30.6354H66.5269C66.5955 30.6362 66.6618 30.6106 66.7124 30.5636L67.3242 29.9601C67.3535 29.9299 67.3763 29.8939 67.391 29.8543C67.4057 29.8147 67.4121 29.7724 67.4097 29.7301V27.9723C67.4121 27.9435 67.4067 27.9146 67.3939 27.8887C67.3811 27.8629 67.3615 27.8411 67.3372 27.8258L66.5558 27.4332Z" fill="#CC0A26"/>
<path d="M82.3889 23.6817C82.4399 23.7321 82.4801 23.7926 82.507 23.8594C82.5339 23.9262 82.547 23.9978 82.5455 24.0699V30.3015C82.5468 30.3735 82.5337 30.4451 82.5067 30.5118C82.4798 30.5786 82.4397 30.6391 82.3889 30.6896L81.0132 32.0183C80.9682 32.0623 80.9148 32.0966 80.8562 32.119C80.7976 32.1415 80.7351 32.1515 80.6725 32.1487H72.914C72.8514 32.1515 72.7889 32.1415 72.7303 32.119C72.6717 32.0966 72.6183 32.0623 72.5733 32.0183L71.1933 30.6823C71.1424 30.6318 71.1023 30.5713 71.0754 30.5045C71.0485 30.4378 71.0353 30.3662 71.0367 30.2941V24.0699C71.0352 23.9978 71.0482 23.9262 71.0752 23.8594C71.1021 23.7926 71.1423 23.7321 71.1933 23.6817L72.5733 22.3443C72.6184 22.3005 72.6719 22.2665 72.7305 22.2443C72.7891 22.2221 72.8515 22.2123 72.914 22.2154H80.6682C80.7306 22.2123 80.7931 22.2221 80.8517 22.2443C80.9102 22.2665 80.9637 22.3005 81.0088 22.3443L82.3889 23.6817ZM79.1286 23.8399C79.0567 23.767 78.9594 23.7255 78.8576 23.7242H74.7217C74.6199 23.7255 74.5226 23.767 74.4506 23.8399L73.8113 24.4713C73.7779 24.5052 73.7517 24.5457 73.7345 24.5903C73.7173 24.6349 73.7094 24.6827 73.7113 24.7305V29.632C73.7094 29.6799 73.7173 29.7276 73.7345 29.7722C73.7517 29.8168 73.7779 29.8574 73.8113 29.8913L74.4506 30.5241C74.5227 30.5966 74.62 30.6376 74.7217 30.6384H78.8605C78.9621 30.6376 79.0595 30.5966 79.1315 30.5241L79.7723 29.8913C79.8056 29.8573 79.8315 29.8167 79.8485 29.7721C79.8654 29.7275 79.8731 29.6798 79.8709 29.632V24.7349C79.8731 24.6872 79.8654 24.6395 79.8485 24.5949C79.8315 24.5502 79.8056 24.5096 79.7723 24.4757L79.1286 23.8399Z" fill="#CC0A26"/>
<path d="M95.3212 30.1652C95.3234 30.2208 95.3129 30.2761 95.2906 30.3269C95.2682 30.3777 95.2345 30.4226 95.1922 30.4582L93.6555 31.9523C93.5115 32.0841 93.3236 32.1562 93.1293 32.1545H86.0174C85.8231 32.1562 85.6352 32.0841 85.4911 31.9523L83.9545 30.4479C83.9122 30.4124 83.8785 30.3675 83.8561 30.3167C83.8337 30.2659 83.8233 30.2105 83.8255 30.1549V22.4351C83.8233 22.4043 83.8278 22.3735 83.8389 22.3448C83.85 22.3161 83.8673 22.2903 83.8895 22.2692C83.9118 22.2482 83.9384 22.2324 83.9674 22.2231C83.9965 22.2137 84.0272 22.2111 84.0574 22.2153H86.3203C86.3502 22.2128 86.3803 22.2171 86.4083 22.228C86.4363 22.2389 86.4615 22.256 86.482 22.2781C86.5025 22.3003 86.5178 22.3268 86.5267 22.3558C86.5356 22.3847 86.5379 22.4153 86.5334 22.4453V29.632C86.5339 29.6675 86.5417 29.7026 86.5564 29.7349C86.5712 29.7672 86.5925 29.7961 86.6189 29.8195L87.4293 30.5666C87.4524 30.5926 87.4812 30.6126 87.5135 30.6251C87.5458 30.6376 87.5805 30.6421 87.6149 30.6383H91.584C91.6181 30.6423 91.6527 30.6378 91.6848 30.6253C91.7168 30.6128 91.7454 30.5926 91.7681 30.5666L92.5799 29.8195C92.6061 29.7958 92.6272 29.767 92.6419 29.7347C92.6566 29.7025 92.6646 29.6675 92.6654 29.632V22.4453C92.6609 22.4153 92.6632 22.3847 92.6721 22.3558C92.681 22.3268 92.6963 22.3003 92.7168 22.2781C92.7373 22.256 92.7625 22.2389 92.7905 22.228C92.8186 22.2171 92.8486 22.2128 92.8785 22.2153H95.0979C95.1288 22.2113 95.1601 22.2144 95.1896 22.2245C95.2191 22.2346 95.2458 22.2514 95.2678 22.2737C95.2898 22.2959 95.3065 22.3229 95.3165 22.3527C95.3265 22.3825 95.3296 22.4142 95.3255 22.4453L95.3212 30.1652Z" fill="#CC0A26"/>
<path d="M107.924 31.7663C107.924 32.0241 107.811 32.1545 107.569 32.1545H106.162C106.031 32.1554 105.902 32.1291 105.782 32.0772C105.662 32.0252 105.554 31.9488 105.464 31.8528L98.6989 25.4205V31.9128C98.6989 32.071 98.6264 32.1428 98.4843 32.1428H96.8999C96.7549 32.1428 96.6868 32.071 96.6868 31.9128V22.6035C96.6868 22.3443 96.7999 22.2154 97.0419 22.2154H98.451C98.5815 22.2143 98.7109 22.2406 98.8309 22.2926C98.9509 22.3445 99.0589 22.421 99.1483 22.5171L105.862 28.9713V22.4453C105.856 22.4137 105.859 22.3813 105.869 22.3508C105.879 22.3204 105.895 22.2927 105.918 22.2702C105.941 22.2477 105.968 22.2309 105.998 22.2214C106.029 22.2119 106.061 22.2098 106.092 22.2154H107.714C107.859 22.2154 107.927 22.2871 107.927 22.4453L107.924 31.7663Z" fill="#CC0A26"/>
<path d="M119.391 23.563C119.391 23.7212 119.32 23.793 119.178 23.793H115.479V31.9128C115.483 31.9439 115.479 31.9756 115.469 32.0054C115.459 32.0352 115.443 32.0622 115.421 32.0844C115.399 32.1067 115.372 32.1235 115.343 32.1336C115.313 32.1437 115.282 32.1468 115.251 32.1428H112.975C112.83 32.1428 112.762 32.071 112.762 31.9128V23.7959H109.049C109.019 23.8 108.987 23.7969 108.958 23.7867C108.928 23.7766 108.901 23.7598 108.879 23.7376C108.857 23.7154 108.841 23.6883 108.831 23.6586C108.821 23.6288 108.818 23.5971 108.822 23.5659V22.4453C108.819 22.4144 108.823 22.3833 108.834 22.3542C108.844 22.3251 108.861 22.2986 108.883 22.2767C108.904 22.2548 108.93 22.238 108.959 22.2274C108.988 22.2167 109.019 22.2126 109.049 22.2153H119.178C119.208 22.2128 119.238 22.2171 119.266 22.228C119.294 22.2388 119.319 22.256 119.34 22.2781C119.36 22.3003 119.376 22.3268 119.384 22.3558C119.393 22.3847 119.396 22.4153 119.391 22.4453V23.563Z" fill="#CC0A26"/>
<path d="M131 25.5216C131.001 25.5739 130.99 25.6257 130.968 25.673C130.946 25.7203 130.913 25.7617 130.872 25.794L126.889 28.8278V31.9128C126.889 32.071 126.818 32.1428 126.661 32.1428H124.4C124.255 32.1428 124.185 32.071 124.185 31.9128V28.8219L120.203 25.7882C120.162 25.7562 120.129 25.7148 120.106 25.6675C120.084 25.6202 120.073 25.5682 120.074 25.5157V22.4395C120.074 22.2813 120.145 22.2095 120.287 22.2095H122.408C122.564 22.2095 122.635 22.2813 122.635 22.4395V25.2139C122.631 25.2683 122.639 25.3229 122.658 25.3737C122.678 25.4245 122.709 25.4701 122.749 25.5069L125.565 27.6207L128.367 25.5069C128.408 25.4704 128.439 25.425 128.459 25.3741C128.479 25.3232 128.487 25.2684 128.482 25.2139V22.4453C128.482 22.2871 128.553 22.2153 128.709 22.2153H130.772C130.929 22.2153 131 22.2871 131 22.4453V25.5216Z" fill="#CC0A26"/>
<path d="M41.4567 5.08657C42.9266 7.7878 44.4661 10.4509 46.0288 13.0994C46.8073 14.4251 47.6235 15.7362 48.4179 17.0458L49.6399 19.0029L50.2546 19.9799C50.4561 20.3022 50.6677 20.6245 50.8692 21.0053C51.6726 22.5328 51.8919 24.3056 51.4853 25.9859C51.384 26.4104 51.2448 26.8247 51.0693 27.2237C50.8765 27.6427 50.7083 27.9562 50.5329 28.3063L49.4834 30.3571C48.083 33.1008 46.6435 35.821 45.1982 38.5384L43.0078 42.6063L42.4424 43.642C42.2065 44.0561 41.9349 44.4482 41.6306 44.8139C40.3794 46.297 38.6346 47.2666 36.725 47.54C35.6813 47.6645 35.0246 47.6206 34.2403 47.6572L29.6638 47.77L18.2217 48H17.5534C17.3012 48 17.0504 47.9678 16.7982 47.9414C16.2953 47.8765 15.7991 47.7672 15.3152 47.6147C13.3508 46.9831 11.6822 45.6486 10.6227 43.8617C9.04157 41.225 7.44696 38.5941 5.83882 35.969L1.62034 29.0841L1.31882 28.5934C1.27678 28.5289 1.19415 28.3766 1.13181 28.2667C1.06948 28.1568 0.995545 28.0294 0.939009 27.9034C-0.0452622 25.9019 -0.26462 23.6039 0.322908 21.4492C0.469555 20.9141 0.663626 20.3934 0.902767 19.8935C1.1927 19.331 1.33766 19.0834 1.53336 18.7289C1.90882 18.058 2.27703 17.3827 2.66409 16.7191L4.98497 12.7229L7.3479 8.7678C8.151 7.44941 8.95701 6.14568 9.78766 4.85073L10.0964 4.36292L10.4356 3.8429C10.7302 3.39539 11.0629 2.97482 11.4301 2.58603C12.159 1.82304 13.0223 1.20405 13.9757 0.760804C14.9104 0.32325 15.9189 0.0692265 16.9475 0.0122567C17.4115 -0.0117451 17.8767 -0.000485536 18.3391 0.0459459L19.4829 0.144094L24.0609 0.576229C27.1051 0.869203 30.1625 1.14753 33.214 1.3658C33.9765 1.41414 34.739 1.47127 35.503 1.51228C35.9069 1.52702 36.3094 1.5696 36.7076 1.63973C37.1082 1.72088 37.5022 1.83253 37.8862 1.97372C39.4029 2.55247 40.6678 3.65527 41.4567 5.08657ZM40.987 5.35904C40.0331 4.11097 38.9981 3.16173 37.6194 2.76329C36.9294 2.5697 36.2102 2.50516 35.4972 2.57285C34.7332 2.60947 33.9707 2.6666 33.2082 2.71934C30.1567 2.9376 27.1051 3.21007 24.0551 3.50744L19.4771 3.9469C18.7523 4.02014 17.8361 4.0553 17.4476 4.17542C16.9581 4.30208 16.494 4.51373 16.0762 4.80092C15.6763 5.0764 15.3258 5.4187 15.0397 5.81315C14.9031 6.00639 14.7832 6.21127 14.6817 6.42547L14.1801 7.41572C13.4857 8.79123 12.7652 10.1506 12.0433 11.51L9.8297 15.5589L7.56245 19.5771C7.18844 20.248 6.79269 20.9072 6.40273 21.5722C5.93449 22.3633 5.80693 22.5713 5.66921 23.0181C5.40076 23.8541 5.43884 24.7598 5.77648 25.5699C5.79388 25.6226 5.82287 25.671 5.84462 25.7164C5.86636 25.7618 5.87506 25.7955 5.9316 25.8965L6.20268 26.4063L6.7434 27.4317L7.82628 29.4694L10.0008 33.5461C11.4369 36.2659 12.8943 38.9754 14.3729 41.6747C14.8629 42.5809 15.6619 43.2763 16.6213 43.6318C16.8629 43.7187 17.1111 43.7853 17.3635 43.831C17.4911 43.8471 17.6187 43.872 17.7477 43.8778L17.9405 43.891H18.2217L29.6638 44.121L34.2403 44.2338C34.9825 44.2441 35.8552 44.2953 36.3307 44.2543C36.8958 44.2062 37.4475 44.0543 37.9587 43.8061C38.4773 43.5511 38.9463 43.2037 39.3431 42.7807C39.541 42.5653 39.7199 42.333 39.878 42.0863L42.8425 37.1687C44.4603 34.5495 46.0767 31.9333 47.7235 29.3346L48.9615 27.3878C49.4051 26.7037 49.7428 26.1939 49.9588 25.5391C50.4793 23.9629 50.0937 22.5054 49.8443 21.5019C49.7547 21.1537 49.6443 20.8113 49.5138 20.4765C49.3764 20.1317 49.2146 19.7973 49.0296 19.476L47.9467 17.3344C47.7858 16.9989 43.8906 9.15892 40.987 5.35904Z" fill="#CC0A26"/>
<path d="M22.2358 21.8242C22.2925 21.8422 22.3507 21.855 22.4097 21.8623C22.3675 21.8885 22.3239 21.9124 22.2792 21.9341C22.2126 21.9678 20.3193 23.021 20.0004 23.2129C19.148 23.7285 13.0203 28.0704 4.7791 34.2375L2.5423 30.5856C7.59071 26.7085 13.023 23.3703 18.7523 20.6245C19.6278 20.2055 20.4976 19.8061 21.3616 19.4262C21.1986 19.6865 21.1121 19.9883 21.1123 20.2964C21.1134 20.6389 21.223 20.9721 21.4252 21.2471C21.6274 21.5221 21.9115 21.7243 22.2358 21.8242Z" fill="#CC0A26"/>
<path d="M45.262 13.3998C38.8346 14.7884 32.5845 16.912 26.6326 19.7295C25.8468 20.1001 25.0568 20.4897 24.2551 20.894L24.1638 20.9438C24.2595 20.7247 24.3057 20.4868 24.2989 20.2474C24.2922 20.0079 24.2327 19.773 24.1248 19.5598C24.0169 19.3465 23.8634 19.1602 23.6753 19.0145C23.4871 18.8687 23.2693 18.7672 23.0374 18.7172C23.1824 18.6616 23.3143 18.6015 23.4549 18.5473C24.2174 18.2412 24.9698 17.9614 25.7178 17.6889C32.016 15.3914 38.5881 13.9491 45.262 13.3998Z" fill="#CC0A26"/>
<path d="M22.7069 18.6835C22.4516 18.6828 22.1998 18.744 21.9728 18.862C21.7457 18.98 21.5501 19.1514 21.4022 19.3618C21.1369 18.5136 20.8876 17.6772 20.66 16.8627C19.6077 13.0485 18.8602 9.15503 18.4246 5.21989C19.3436 9.01005 20.525 12.7302 21.9603 16.3529C22.2633 17.1249 22.5822 17.913 22.9287 18.7055C22.8557 18.6906 22.7814 18.6832 22.7069 18.6835Z" fill="#CC0A26"/>
<path d="M39.1183 43.3022C37.9282 43.8222 36.7424 44.3466 35.5508 44.8725C30.7524 39.2505 26.8292 32.923 23.9159 26.1075C23.6506 25.4893 23.4027 24.8829 23.1635 24.275C22.8504 23.4869 22.5576 22.7046 22.2937 21.9312C22.2778 21.8916 22.2618 21.8594 22.2502 21.8213C22.307 21.8393 22.3652 21.8521 22.4242 21.8594C22.5194 21.8807 22.6166 21.8915 22.7141 21.8916C22.9792 21.8925 23.2402 21.8258 23.4731 21.6978C23.7059 21.5698 23.9031 21.3846 24.0464 21.1592C24.3986 21.9077 24.7712 22.6695 25.1611 23.4341C25.4598 24.0362 25.7787 24.6485 26.1092 25.2623C29.6361 31.8311 34.0107 37.8974 39.1183 43.3022Z" fill="#CC0A26"/>
<path d="M26.6326 19.7295C26.5326 18.9732 26.2145 18.2635 25.7178 17.6889C25.3485 17.246 24.8873 16.8905 24.3671 16.6475C23.8468 16.4045 23.28 16.2799 22.7069 16.2826C22.4583 16.2813 22.2101 16.3048 21.9661 16.3529C21.5039 16.4403 21.0616 16.6131 20.6614 16.8627C20.0736 17.2164 19.5869 17.7185 19.2491 18.3197C18.9113 18.9209 18.7341 19.6006 18.7349 20.2919C18.7349 20.4018 18.7349 20.5117 18.7508 20.6201C18.8365 21.6213 19.2892 22.5541 20.0203 23.2354C20.7514 23.9167 21.708 24.2974 22.7025 24.3028C22.8527 24.3017 23.0027 24.2925 23.1519 24.2749C23.8824 24.1944 24.5751 23.9059 25.1495 23.4429C25.6239 23.0695 26.0077 22.5915 26.2715 22.0454C26.5352 21.4993 26.6721 20.8996 26.6717 20.2919C26.6748 20.1036 26.6617 19.9155 26.6326 19.7295ZM22.7069 21.8945C22.6094 21.8944 22.5122 21.8836 22.417 21.8623C22.3579 21.855 22.2997 21.8422 22.243 21.8242C21.9186 21.7236 21.6346 21.5204 21.4329 21.2446C21.2312 20.9688 21.1224 20.6349 21.1224 20.2919C21.1223 19.9839 21.2088 19.6821 21.3718 19.4218L21.4153 19.3618C21.5631 19.1514 21.7588 18.98 21.9858 18.862C22.2129 18.744 22.4646 18.6828 22.7199 18.6835C22.7964 18.6828 22.8726 18.6901 22.9475 18.7055C22.9802 18.7064 23.0127 18.7103 23.0447 18.7172C23.2765 18.7672 23.4944 18.8687 23.6825 19.0144C23.8706 19.1602 24.0242 19.3465 24.1321 19.5597C24.2399 19.773 24.2994 20.0079 24.3062 20.2473C24.3129 20.4868 24.2667 20.7247 24.171 20.9438C24.1349 21.0215 24.0932 21.0964 24.0464 21.1679C23.9018 21.3933 23.7031 21.5781 23.469 21.7051C23.2348 21.8321 22.9727 21.8973 22.7069 21.8945Z" fill="#CC0A26"/>
<path d="M74.0549 6.52216C74.1147 6.58446 74.1613 6.65839 74.192 6.73948C74.2226 6.82057 74.2367 6.90711 74.2332 6.99384V10.1829L76.5671 11.3548C76.6506 11.3947 76.7205 11.4587 76.768 11.5387C76.8155 11.6188 76.8384 11.7113 76.8338 11.8045V16.5902C76.835 16.673 76.82 16.7553 76.7897 16.8322C76.7593 16.9091 76.7142 16.9792 76.657 17.0385L74.7 19.016C74.6382 19.0764 74.565 19.1234 74.4848 19.1544C74.4046 19.1853 74.319 19.1996 74.2332 19.1962H58.5567C58.1348 19.1962 57.9348 18.9706 57.9348 18.5224V4.31899C57.9348 3.89271 58.1348 3.66858 58.5567 3.66858H70.7627C70.8797 3.66526 70.9961 3.68763 71.1037 3.73417C71.2113 3.7807 71.3077 3.85029 71.3861 3.93812L74.0549 6.52216ZM69.5856 6.18523C69.5303 6.13027 69.4642 6.08776 69.3914 6.06049C69.3187 6.03322 69.2411 6.02182 69.1638 6.02703H62.5389C62.2939 6.02703 62.1605 6.16179 62.1605 6.45477V10.2327H70.9642V7.75704C70.963 7.68112 70.9468 7.6062 70.9164 7.53675C70.886 7.4673 70.8421 7.40472 70.7874 7.35274L69.5856 6.18523ZM71.4093 11.8235H62.1605V16.4071C62.1605 16.7001 62.2939 16.8334 62.5606 16.8334H71.3643C71.4714 16.8347 71.575 16.7949 71.6543 16.7221L72.6096 15.7772C72.6556 15.7303 72.6912 15.674 72.7142 15.6122C72.7372 15.5503 72.747 15.4843 72.7429 15.4183V12.6775C72.7462 12.6336 72.7378 12.5896 72.7184 12.5502C72.699 12.5107 72.6694 12.4773 72.6328 12.4534L71.4093 11.8235Z" fill="#CC0A26"/>
<path d="M96.4417 16.0922C96.4441 16.1775 96.4273 16.2623 96.3926 16.3401C96.358 16.418 96.3064 16.487 96.2417 16.5419L93.8411 18.8754C93.6149 19.0803 93.3214 19.1925 93.0177 19.1904H81.9018C81.5982 19.1923 81.3047 19.08 81.0784 18.8754L78.6778 16.5389C78.6131 16.484 78.5615 16.4151 78.5268 16.3372C78.4922 16.2593 78.4754 16.1746 78.4777 16.0892V4.02748C78.4716 3.97887 78.4765 3.92948 78.4922 3.88311C78.5079 3.83673 78.5339 3.7946 78.5681 3.75995C78.6024 3.7253 78.6441 3.69905 78.69 3.68321C78.7359 3.66737 78.7848 3.66237 78.8329 3.66858H82.3686C82.4152 3.6648 82.4621 3.67168 82.5058 3.68871C82.5494 3.70574 82.5887 3.73248 82.6207 3.76696C82.6528 3.80143 82.6767 3.84275 82.6908 3.88785C82.7048 3.93295 82.7087 3.98067 82.702 4.02748V15.2616C82.7028 15.3171 82.7151 15.3719 82.738 15.4223C82.761 15.4728 82.7942 15.5178 82.8354 15.5546L84.1023 16.7264C84.1387 16.7666 84.1839 16.7976 84.2342 16.8169C84.2846 16.8362 84.3387 16.8434 84.3923 16.8378H90.5953C90.6489 16.8437 90.7032 16.8367 90.7536 16.8174C90.804 16.798 90.8491 16.7669 90.8852 16.7264L92.1522 15.5546C92.1935 15.5178 92.2266 15.4728 92.2496 15.4223C92.2725 15.3719 92.2848 15.3171 92.2856 15.2616V4.02748C92.2789 3.98067 92.2828 3.93295 92.2968 3.88785C92.3109 3.84275 92.3348 3.80143 92.3669 3.76696C92.3989 3.73248 92.4382 3.70574 92.4818 3.68871C92.5255 3.67168 92.5724 3.6648 92.619 3.66858H96.0895C96.1376 3.66207 96.1866 3.66686 96.2327 3.68259C96.2787 3.69832 96.3205 3.72457 96.3549 3.75929C96.3892 3.79401 96.4152 3.83627 96.4308 3.88278C96.4464 3.92929 96.4511 3.97881 96.4446 4.02748L96.4417 16.0922Z" fill="#CC0A26"/>
<path d="M114.429 5.69157C114.437 5.73753 114.433 5.78465 114.419 5.829C114.405 5.87336 114.381 5.91368 114.348 5.94662C114.315 5.97957 114.275 6.00418 114.232 6.01841C114.188 6.03265 114.141 6.03611 114.096 6.02849H104.445C104.35 6.0187 104.255 6.03194 104.166 6.0671C104.077 6.10226 103.998 6.15833 103.935 6.23064L102.758 7.35274C102.685 7.43257 102.645 7.53729 102.646 7.64571V14.9481C102.643 15.0195 102.656 15.0906 102.683 15.1566C102.71 15.2226 102.751 15.2819 102.803 15.3304L104.252 16.7001C104.296 16.7444 104.348 16.7793 104.405 16.8025C104.463 16.8256 104.524 16.8367 104.586 16.8349H111.234C111.479 16.8349 111.591 16.7001 111.591 16.4086V10.9021C111.591 10.656 111.701 10.5432 111.924 10.5432H114.645C114.89 10.5432 115.002 10.656 115.002 10.9021V18.5195C115.002 18.9677 114.778 19.1933 114.356 19.1933H102.178C101.974 19.1987 101.776 19.1265 101.623 18.9911L98.6206 16.1376C98.555 16.0736 98.5033 15.9966 98.4689 15.9113C98.4344 15.8261 98.418 15.7345 98.4205 15.6424V6.49872C98.418 6.40689 98.4345 6.31554 98.4689 6.23052C98.5034 6.14551 98.555 6.06871 98.6206 6.00506L100.778 3.91468C100.853 3.83655 100.943 3.77451 101.043 3.73224C101.142 3.68997 101.249 3.66832 101.358 3.66858H114.097C114.319 3.66858 114.43 3.77992 114.43 4.02748L114.429 5.69157Z" fill="#CC0A26"/>
<path d="M68.6143 44.0829C68.6684 44.2056 68.6998 44.3371 68.7071 44.4711V44.6572C68.7071 44.8037 68.6404 44.871 68.507 44.871H66.4949C66.4022 44.871 66.35 44.8168 66.3094 44.7099L65.6744 42.9521H60.0585L59.4366 44.7099C59.4235 44.7539 59.3975 44.7929 59.3621 44.8217C59.3266 44.8504 59.2834 44.8676 59.238 44.871H57.6086C57.4767 44.871 57.41 44.8037 57.41 44.6572V44.4697C57.4166 44.3355 57.4481 44.2039 57.5028 44.0815L60.4166 35.8914C60.4509 35.816 60.5047 35.7513 60.5723 35.7042C60.6399 35.657 60.7188 35.6291 60.8007 35.6233H65.3164C65.401 35.6176 65.485 35.641 65.5547 35.6897C65.6245 35.7383 65.6758 35.8094 65.7005 35.8914L68.6143 44.0829ZM62.3229 37.031C62.2431 37.031 62.1909 37.0574 62.1779 37.1101L60.5354 41.6337H65.1975L63.5551 37.0926C63.542 37.053 63.5014 37.0266 63.4362 37.0266L62.3229 37.031Z" fill="#CC0A26"/>
<path d="M88.863 37.0164C88.8991 37.0556 88.9271 37.1017 88.9452 37.1521C88.9634 37.2024 88.9714 37.2559 88.9688 37.3094V39.451C88.9714 39.5322 88.9575 39.613 88.9281 39.6885C88.8987 39.7641 88.8543 39.8328 88.7978 39.8905L87.6816 40.951L89.1515 44.0961C89.2149 44.2153 89.2468 44.349 89.2443 44.4843V44.6308C89.2443 44.7773 89.2312 44.8725 89.0326 44.8725H87.0365C86.9905 44.8723 86.9457 44.8583 86.9078 44.8322C86.8698 44.8061 86.8404 44.7691 86.8234 44.726L85.4868 41.5414H80.758V44.6572C80.758 44.8037 80.6928 44.871 80.5464 44.871H78.4676C78.3357 44.871 78.269 44.8037 78.269 44.6572V36.0144C78.269 35.761 78.3879 35.6262 78.6401 35.6262H87.1814C87.255 35.6243 87.3282 35.6376 87.3965 35.6653C87.4648 35.693 87.5268 35.7345 87.5786 35.7874L88.863 37.0164ZM85.7782 37.1101C85.7499 37.0833 85.7166 37.0625 85.6803 37.0489C85.6439 37.0353 85.6052 37.0293 85.5665 37.031H80.9842C80.8392 37.031 80.758 37.1101 80.758 37.2845V40.1893H85.5926L86.387 39.4393C86.4149 39.4166 86.4376 39.3881 86.4536 39.3558C86.4696 39.3234 86.4786 39.2879 86.4798 39.2518V37.9188C86.4797 37.8786 86.4714 37.8389 86.4554 37.8021C86.4394 37.7653 86.4162 37.7322 86.387 37.7049L85.7782 37.1101Z" fill="#CC0A26"/>
<path d="M109.657 44.0829C109.711 44.2056 109.742 44.3371 109.75 44.4711V44.6572C109.75 44.8037 109.683 44.871 109.551 44.871H107.542C107.449 44.871 107.397 44.8168 107.356 44.7099L106.721 42.9521H101.101L100.479 44.7099C100.466 44.754 100.44 44.7931 100.405 44.8219C100.369 44.8507 100.326 44.8678 100.28 44.871H98.651C98.5191 44.871 98.4524 44.8037 98.4524 44.6572V44.4697C98.4597 44.3356 98.4912 44.2041 98.5452 44.0815L101.453 35.8928C101.488 35.8177 101.542 35.7533 101.609 35.7062C101.677 35.6591 101.756 35.631 101.837 35.6248H106.353C106.438 35.6191 106.522 35.6425 106.591 35.6911C106.661 35.7398 106.712 35.8109 106.737 35.8928L109.657 44.0829ZM103.367 37.031C103.287 37.031 103.233 37.0574 103.222 37.1101L101.579 41.6337H106.237L104.595 37.0926C104.582 37.053 104.542 37.0266 104.476 37.0266L103.367 37.031Z" fill="#CC0A26"/>
<path d="M128.912 37.3328C128.948 37.3696 128.976 37.4134 128.995 37.4615C129.013 37.5096 129.022 37.561 129.02 37.6126V39.5169L130.41 40.2127C130.459 40.2363 130.501 40.2742 130.529 40.3217C130.557 40.3692 130.571 40.4241 130.568 40.4793V43.33C130.569 43.3795 130.56 43.4287 130.542 43.4748C130.523 43.5208 130.496 43.5627 130.462 43.5981L129.302 44.77C129.266 44.8059 129.222 44.8339 129.175 44.8523C129.127 44.8707 129.076 44.8791 129.025 44.8769H119.683C119.432 44.8769 119.311 44.7436 119.311 44.4755V36.0144C119.311 35.761 119.432 35.6262 119.683 35.6262H126.952C127.022 35.6243 127.091 35.6377 127.156 35.6656C127.22 35.6934 127.277 35.7349 127.324 35.7874L128.912 37.3328ZM126.251 37.1321C126.218 37.0994 126.179 37.0741 126.135 37.0579C126.092 37.0418 126.046 37.0351 126 37.0384H122.053C121.908 37.0384 121.828 37.1175 121.828 37.2918V39.5301H127.073V38.0652C127.072 38.0201 127.062 37.9755 127.044 37.9342C127.026 37.8929 127 37.8558 126.967 37.825L126.251 37.1321ZM127.337 40.4896H121.828V43.2201C121.828 43.3944 121.908 43.475 122.066 43.475H127.311C127.374 43.475 127.436 43.451 127.483 43.4076L128.053 42.8451C128.08 42.8169 128.101 42.7833 128.114 42.7465C128.128 42.7097 128.133 42.6704 128.131 42.6312V40.995C128.133 40.9687 128.128 40.9422 128.117 40.9185C128.105 40.8948 128.088 40.8746 128.066 40.8602L127.337 40.4896Z" fill="#CC0A26"/>
</svg>
