<svg width="131" height="48" viewBox="0 0 131 48" fill="none" xmlns="http://www.w3.org/2000/svg">
<path d="M68.2563 24.0405C68.2943 24.0806 68.3239 24.1279 68.3433 24.1798C68.3627 24.2316 68.3716 24.2869 68.3694 24.3423V26.3843L69.8625 27.1314C69.917 27.157 69.9625 27.1988 69.993 27.2511C70.0236 27.3034 70.0377 27.3638 70.0336 27.4244V30.486C70.0351 30.54 70.0259 30.5937 70.0065 30.6441C69.9871 30.6944 69.9578 30.7403 69.9205 30.779L68.668 32.0431C68.6285 32.0817 68.5816 32.1119 68.5303 32.1317C68.479 32.1516 68.4243 32.1608 68.3694 32.1589H58.3334C58.0624 32.1589 57.9348 32.0124 57.9348 31.7194V22.6372C57.9348 22.3647 58.0624 22.2212 58.3334 22.2212H66.1427C66.2174 22.219 66.2918 22.2332 66.3606 22.2628C66.4294 22.2924 66.491 22.3367 66.5414 22.3926L68.2563 24.0405ZM65.3961 23.8252C65.3607 23.7902 65.3184 23.7631 65.2719 23.7457C65.2255 23.7283 65.1759 23.721 65.1265 23.7241H60.879C60.7225 23.7241 60.6369 23.8106 60.6369 23.9981V26.4122H66.2717V24.8316C66.2709 24.7828 66.2604 24.7347 66.2407 24.6901C66.221 24.6455 66.1926 24.6055 66.1572 24.5723L65.3961 23.8252ZM66.5558 27.4332H60.6369V30.3629C60.6369 30.549 60.7225 30.6354 60.8935 30.6354H66.5269C66.5955 30.6362 66.6618 30.6105 66.7124 30.5636L67.3242 29.9601C67.3535 29.9299 67.3763 29.8939 67.391 29.8542C67.4057 29.8146 67.4121 29.7723 67.4097 29.7301V27.9723C67.4121 27.9435 67.4067 27.9145 67.3939 27.8887C67.3811 27.8628 67.3615 27.8411 67.3372 27.8258L66.5558 27.4332Z" fill="#CC0A26"/>
<path d="M82.3889 23.6817C82.4399 23.7321 82.4801 23.7926 82.507 23.8594C82.5339 23.9261 82.547 23.9978 82.5455 24.0699V30.3014C82.5469 30.3735 82.5337 30.4451 82.5068 30.5118C82.4799 30.5785 82.4398 30.6391 82.3889 30.6896L81.0132 32.0182C80.9682 32.0623 80.9148 32.0966 80.8562 32.119C80.7976 32.1414 80.7351 32.1515 80.6725 32.1486H72.914C72.8514 32.1515 72.7889 32.1414 72.7304 32.119C72.6718 32.0966 72.6183 32.0623 72.5734 32.0182L71.1933 30.6823C71.1425 30.6317 71.1024 30.5712 71.0754 30.5045C71.0485 30.4377 71.0353 30.3662 71.0367 30.2941V24.0699C71.0352 23.9978 71.0483 23.9261 71.0752 23.8594C71.1021 23.7926 71.1423 23.7321 71.1933 23.6817L72.5734 22.3442C72.6185 22.3004 72.672 22.2664 72.7305 22.2443C72.7891 22.2221 72.8515 22.2122 72.914 22.2153H80.6682C80.7307 22.2122 80.7931 22.2221 80.8517 22.2443C80.9103 22.2664 80.9637 22.3004 81.0089 22.3442L82.3889 23.6817ZM79.1287 23.8399C79.0567 23.767 78.9594 23.7255 78.8576 23.7241H74.7217C74.6199 23.7255 74.5226 23.767 74.4506 23.8399L73.8114 24.4712C73.7779 24.5051 73.7517 24.5457 73.7345 24.5903C73.7173 24.6349 73.7094 24.6827 73.7113 24.7305V29.632C73.7094 29.6798 73.7173 29.7276 73.7345 29.7722C73.7517 29.8168 73.7779 29.8573 73.8114 29.8913L74.4506 30.5241C74.5227 30.5965 74.6201 30.6376 74.7217 30.6383H78.8605C78.9622 30.6376 79.0595 30.5965 79.1316 30.5241L79.7723 29.8913C79.8056 29.8573 79.8315 29.8167 79.8485 29.7721C79.8655 29.7274 79.8731 29.6797 79.8709 29.632V24.7349C79.8731 24.6871 79.8655 24.6394 79.8485 24.5948C79.8315 24.5502 79.8056 24.5096 79.7723 24.4756L79.1287 23.8399Z" fill="#CC0A26"/>
<path d="M95.3212 30.1652C95.3234 30.2208 95.313 30.2761 95.2906 30.3269C95.2682 30.3777 95.2345 30.4226 95.1922 30.4582L93.6556 31.9523C93.5115 32.0841 93.3236 32.1562 93.1293 32.1545H86.0174C85.8231 32.1562 85.6352 32.0841 85.4912 31.9523L83.9545 30.4479C83.9122 30.4124 83.8785 30.3675 83.8561 30.3167C83.8338 30.2658 83.8233 30.2105 83.8255 30.1549V22.4351C83.8233 22.4043 83.8279 22.3735 83.839 22.3448C83.85 22.3161 83.8673 22.2903 83.8896 22.2692C83.9118 22.2482 83.9384 22.2324 83.9675 22.2231C83.9965 22.2137 84.0273 22.2111 84.0575 22.2153H86.3204C86.3502 22.2128 86.3803 22.2171 86.4083 22.228C86.4363 22.2388 86.4615 22.256 86.4821 22.2781C86.5026 22.3003 86.5178 22.3268 86.5267 22.3558C86.5356 22.3847 86.5379 22.4153 86.5335 22.4453V29.632C86.5339 29.6675 86.5417 29.7026 86.5565 29.7349C86.5712 29.7672 86.5925 29.796 86.619 29.8195L87.4293 30.5666C87.4524 30.5926 87.4813 30.6126 87.5135 30.6251C87.5458 30.6376 87.5805 30.6421 87.6149 30.6383H91.584C91.6182 30.6423 91.6527 30.6378 91.6848 30.6253C91.7169 30.6128 91.7454 30.5926 91.7681 30.5666L92.5799 29.8195C92.6061 29.7958 92.6272 29.767 92.642 29.7347C92.6567 29.7024 92.6647 29.6675 92.6655 29.632V22.4453C92.661 22.4153 92.6633 22.3847 92.6722 22.3558C92.6811 22.3268 92.6964 22.3003 92.7169 22.2781C92.7374 22.256 92.7626 22.2388 92.7906 22.228C92.8186 22.2171 92.8487 22.2128 92.8786 22.2153H95.098C95.1288 22.2112 95.1602 22.2144 95.1896 22.2245C95.2191 22.2346 95.2458 22.2514 95.2678 22.2737C95.2898 22.2959 95.3065 22.3229 95.3165 22.3527C95.3265 22.3825 95.3296 22.4141 95.3256 22.4453L95.3212 30.1652Z" fill="#CC0A26"/>
<path d="M107.924 31.7663C107.924 32.0241 107.811 32.1545 107.569 32.1545H106.162C106.031 32.1554 105.902 32.1291 105.782 32.0771C105.662 32.0252 105.554 31.9488 105.464 31.8527L98.6989 25.4205V31.9128C98.6989 32.071 98.6264 32.1428 98.4844 32.1428H96.8999C96.7549 32.1428 96.6868 32.071 96.6868 31.9128V22.6035C96.6868 22.3442 96.7999 22.2153 97.0419 22.2153H98.451C98.5815 22.2143 98.7109 22.2406 98.8309 22.2925C98.9509 22.3445 99.0589 22.4209 99.1483 22.5171L105.862 28.9713V22.4453C105.856 22.4137 105.859 22.3813 105.869 22.3508C105.879 22.3203 105.895 22.2927 105.918 22.2702C105.941 22.2476 105.968 22.2309 105.998 22.2214C106.029 22.2118 106.061 22.2098 106.092 22.2153H107.714C107.859 22.2153 107.927 22.2871 107.927 22.4453L107.924 31.7663Z" fill="#CC0A26"/>
<path d="M119.391 23.563C119.391 23.7212 119.32 23.793 119.178 23.793H115.479V31.9128C115.483 31.9439 115.479 31.9756 115.469 32.0054C115.459 32.0352 115.443 32.0622 115.421 32.0844C115.399 32.1067 115.372 32.1235 115.343 32.1336C115.313 32.1437 115.282 32.1468 115.251 32.1428H112.975C112.83 32.1428 112.762 32.071 112.762 31.9128V23.7959H109.049C109.019 23.8 108.987 23.7969 108.958 23.7867C108.928 23.7766 108.902 23.7598 108.88 23.7376C108.858 23.7154 108.841 23.6883 108.831 23.6586C108.821 23.6288 108.818 23.5971 108.822 23.5659V22.4453C108.819 22.4144 108.823 22.3833 108.834 22.3542C108.844 22.3251 108.861 22.2986 108.883 22.2767C108.904 22.2548 108.93 22.238 108.959 22.2274C108.988 22.2167 109.019 22.2126 109.049 22.2153H119.178C119.208 22.2128 119.238 22.2171 119.266 22.228C119.294 22.2388 119.319 22.256 119.34 22.2781C119.36 22.3003 119.376 22.3268 119.384 22.3558C119.393 22.3847 119.396 22.4153 119.391 22.4453V23.563Z" fill="#CC0A26"/>
<path d="M131 25.5215C131.001 25.5738 130.99 25.6257 130.968 25.673C130.946 25.7203 130.913 25.7617 130.872 25.794L126.889 28.8278V31.9128C126.889 32.071 126.818 32.1428 126.661 32.1428H124.4C124.255 32.1428 124.185 32.071 124.185 31.9128V28.8219L120.203 25.7881C120.162 25.7562 120.129 25.7148 120.106 25.6675C120.084 25.6201 120.073 25.5681 120.074 25.5157V22.4394C120.074 22.2812 120.145 22.2095 120.287 22.2095H122.408C122.564 22.2095 122.635 22.2812 122.635 22.4394V25.2139C122.631 25.2682 122.639 25.3229 122.658 25.3737C122.678 25.4245 122.709 25.4701 122.749 25.5069L125.565 27.6207L128.367 25.5069C128.408 25.4704 128.439 25.4249 128.459 25.3741C128.479 25.3232 128.487 25.2684 128.482 25.2139V22.4453C128.482 22.2871 128.553 22.2153 128.709 22.2153H130.772C130.929 22.2153 131 22.2871 131 22.4453V25.5215Z" fill="#CC0A26"/>
<path d="M67.6764 37.138C67.6764 37.2654 67.6141 37.3299 67.4749 37.3299H61.2603C61.2088 37.3284 61.1576 37.3379 61.1099 37.3576C61.0623 37.3772 61.0192 37.4067 60.9834 37.4441L60.5485 37.8836C60.5116 37.9146 60.4821 37.9536 60.4623 37.9977C60.4424 38.0419 60.4328 38.09 60.434 38.1385V38.8636C60.4344 38.8951 60.4414 38.9262 60.4547 38.9547C60.4679 38.9833 60.4871 39.0086 60.5108 39.0291L61.0138 39.5257C61.0343 39.5493 61.0595 39.5682 61.0877 39.5814C61.116 39.5945 61.1466 39.6015 61.1777 39.6019H66.2993C66.3798 39.6012 66.4597 39.6166 66.5344 39.6473C66.609 39.678 66.6769 39.7233 66.7342 39.7806L67.6532 40.7738C67.7561 40.8788 67.8148 41.02 67.817 41.1678V43.1337C67.8183 43.2001 67.8061 43.2661 67.7812 43.3276C67.7562 43.389 67.7191 43.4447 67.6721 43.4911L66.5124 44.6103C66.3872 44.722 66.227 44.7853 66.0601 44.789H58.1232C57.9971 44.789 57.9348 44.7245 57.9348 44.5854V43.6552C57.9348 43.516 57.9971 43.4516 58.1232 43.4516H64.6873C64.7909 43.456 64.893 43.425 64.9772 43.3637L65.4121 42.9242C65.4402 42.8985 65.4627 42.8671 65.4779 42.832C65.4931 42.7969 65.5009 42.7589 65.5005 42.7206V41.7274C65.4837 41.6873 65.4573 41.6521 65.4237 41.6249L64.9221 41.1415C64.8553 41.0823 64.7714 41.0463 64.6829 41.0389H59.4337C59.3871 41.0404 59.3406 41.0322 59.2972 41.0149C59.2538 40.9975 59.2144 40.9712 59.1815 40.9378L58.2363 39.8817C58.1775 39.8301 58.1319 39.765 58.1033 39.6918C58.0748 39.6186 58.0642 39.5395 58.0725 39.4613V37.5716C58.0725 37.3797 58.174 37.2918 58.3132 37.176L59.396 36.1506C59.4458 36.1013 59.5051 36.0629 59.5702 36.0377C59.6353 36.0125 59.7048 36.0011 59.7744 36.0041H67.4706C67.4981 35.9996 67.5262 36.0017 67.5527 36.0103C67.5792 36.019 67.6033 36.0338 67.623 36.0537C67.6427 36.0736 67.6574 36.098 67.666 36.1248C67.6745 36.1515 67.6766 36.18 67.6721 36.2078L67.6764 37.138Z" fill="#CC0A26"/>
<path d="M80.3435 38.9207C80.3449 38.9672 80.3355 39.0133 80.3158 39.0554C80.2961 39.0974 80.2668 39.1341 80.2304 39.1624L76.7034 41.849V44.5854C76.7079 44.6132 76.7058 44.6416 76.6973 44.6684C76.6887 44.6952 76.674 44.7195 76.6543 44.7394C76.6346 44.7593 76.6105 44.7742 76.584 44.7828C76.5575 44.7914 76.5294 44.7936 76.5019 44.789H74.4985C74.3724 44.789 74.31 44.7245 74.31 44.5854V41.849L70.783 39.1624C70.7466 39.1341 70.7173 39.0974 70.6976 39.0554C70.6779 39.0133 70.6685 38.9672 70.67 38.9207V36.1961C70.67 36.0496 70.7323 35.9924 70.8584 35.9924H72.7357C72.7632 35.9879 72.7913 35.99 72.8178 35.9986C72.8444 36.0072 72.8685 36.0221 72.8881 36.042C72.9078 36.0619 72.9226 36.0863 72.9311 36.1131C72.9396 36.1398 72.9417 36.1683 72.9372 36.1961V38.6512C72.9339 38.6985 72.9412 38.746 72.9585 38.7901C72.9758 38.8343 73.0027 38.8739 73.0372 38.9061L75.5321 40.7782L78.0139 38.9061C78.0484 38.8739 78.0753 38.8343 78.0926 38.7901C78.1099 38.746 78.1172 38.6985 78.1139 38.6512V36.1961C78.1094 36.1683 78.1115 36.1398 78.12 36.1131C78.1285 36.0863 78.1433 36.0619 78.163 36.042C78.1826 36.0221 78.2067 36.0072 78.2332 35.9986C78.2598 35.99 78.2879 35.9879 78.3154 35.9924H80.1434C80.1709 35.9879 80.199 35.99 80.2255 35.9986C80.2521 36.0072 80.2761 36.0221 80.2958 36.042C80.3155 36.0619 80.3303 36.0863 80.3388 36.1131C80.3473 36.1398 80.3494 36.1683 80.3449 36.1961L80.3435 38.9207Z" fill="#CC0A26"/>
<path d="M93.4062 37.3167C93.4405 37.3542 93.467 37.3983 93.4842 37.4464C93.5013 37.4944 93.5089 37.5455 93.5063 37.5965V39.6341C93.5092 39.7115 93.4963 39.7886 93.4683 39.8607C93.4404 39.9328 93.398 39.9983 93.3439 40.0531L92.2857 41.0594L93.6831 44.0507C93.7437 44.1639 93.7742 44.2911 93.7715 44.4198V44.5663C93.7715 44.7128 93.7585 44.7963 93.57 44.7963H91.6681C91.6237 44.7958 91.5805 44.7815 91.5444 44.7552C91.5084 44.729 91.4812 44.6922 91.4666 44.6498L90.1938 41.6205H85.6999V44.5868C85.7044 44.6146 85.7023 44.6431 85.6938 44.6699C85.6853 44.6966 85.6705 44.721 85.6508 44.7409C85.6312 44.7608 85.6071 44.7757 85.5806 44.7843C85.554 44.7929 85.5259 44.795 85.4984 44.7905H83.5182C83.3921 44.7905 83.3283 44.726 83.3283 44.5868V36.3616C83.3283 36.1199 83.4414 35.9924 83.682 35.9924H91.8C91.8696 35.9894 91.9392 36.0008 92.0042 36.026C92.0693 36.0512 92.1286 36.0896 92.1784 36.1389L93.4062 37.3167ZM90.4707 37.406C90.4442 37.3798 90.4126 37.3595 90.3779 37.3464C90.3432 37.3333 90.3062 37.3276 90.2692 37.3299H85.9116C85.7666 37.3299 85.697 37.406 85.697 37.5716V40.3329H90.2909L91.0462 39.6209C91.0726 39.5991 91.0941 39.5719 91.1093 39.5411C91.1245 39.5103 91.1332 39.4766 91.1346 39.4422V38.1692C91.1347 38.131 91.1269 38.0931 91.1117 38.058C91.0964 38.023 91.0741 37.9915 91.0462 37.9656L90.4707 37.406Z" fill="#CC0A26"/>
<path d="M99.1251 44.5854C99.1284 44.6129 99.1254 44.6408 99.1164 44.667C99.1075 44.6932 99.0927 44.7171 99.0733 44.7367C99.0539 44.7563 99.0303 44.7712 99.0044 44.7802C98.9785 44.7893 98.9508 44.7923 98.9236 44.789H96.9202C96.8929 44.7926 96.8651 44.7898 96.839 44.7808C96.813 44.7719 96.7893 44.757 96.7698 44.7373C96.7503 44.7176 96.7356 44.6937 96.7267 44.6674C96.7179 44.641 96.7151 44.613 96.7187 44.5854V36.196C96.7162 36.1687 96.7198 36.1411 96.729 36.1153C96.7383 36.0895 96.7531 36.066 96.7723 36.0466C96.7915 36.0272 96.8147 36.0122 96.8403 36.0029C96.8658 35.9935 96.8931 35.99 96.9202 35.9924H98.9236C98.9507 35.99 98.9779 35.9935 99.0035 36.0029C99.0291 36.0122 99.0523 36.0272 99.0715 36.0466C99.0907 36.066 99.1055 36.0895 99.1148 36.1153C99.124 36.1411 99.1275 36.1687 99.1251 36.196V44.5854Z" fill="#CC0A26"/>
<path d="M112.779 44.0375C112.831 44.154 112.861 44.2791 112.868 44.4067V44.5854C112.868 44.7319 112.804 44.789 112.678 44.789H110.764C110.676 44.789 110.619 44.7377 110.587 44.6425L109.983 42.974H104.642L104.051 44.6425C104.038 44.6831 104.012 44.7187 103.979 44.7448C103.945 44.7709 103.905 44.7863 103.863 44.789H102.311C102.185 44.789 102.122 44.7245 102.122 44.5854V44.4067C102.129 44.2793 102.159 44.1542 102.21 44.0375L104.982 36.2473C105.014 36.1756 105.065 36.1141 105.13 36.0692C105.194 36.0244 105.269 35.9978 105.347 35.9924H109.642C109.723 35.9867 109.803 36.0088 109.869 36.0551C109.936 36.1014 109.984 36.1692 110.008 36.2473L112.779 44.0375ZM106.795 37.3328C106.72 37.3328 106.669 37.3577 106.65 37.409L105.087 41.7113H109.522L107.961 37.3958C107.948 37.3577 107.91 37.3328 107.846 37.3328H106.795Z" fill="#CC0A26"/>
<path d="M41.4567 5.08657C42.9266 7.7878 44.4661 10.4509 46.0288 13.0994C46.8073 14.4251 47.6235 15.7362 48.4179 17.0458L49.6399 19.0029L50.2546 19.9799C50.4561 20.3022 50.6677 20.6245 50.8692 21.0053C51.6726 22.5328 51.8919 24.3056 51.4853 25.9859C51.384 26.4104 51.2448 26.8247 51.0693 27.2237C50.8765 27.6427 50.7083 27.9562 50.5329 28.3063L49.4834 30.3571C48.083 33.1008 46.6435 35.821 45.1982 38.5384L43.0078 42.6063L42.4424 43.642C42.2065 44.0561 41.9349 44.4482 41.6306 44.8139C40.3794 46.297 38.6346 47.2666 36.725 47.54C35.6813 47.6645 35.0246 47.6206 34.2403 47.6572L29.6638 47.77L18.2217 48H17.5534C17.3012 48 17.0504 47.9678 16.7982 47.9414C16.2953 47.8765 15.7991 47.7672 15.3152 47.6147C13.3508 46.9831 11.6822 45.6486 10.6227 43.8617C9.04157 41.225 7.44696 38.5941 5.83882 35.969L1.62034 29.0841L1.31882 28.5934C1.27678 28.5289 1.19415 28.3766 1.13181 28.2667C1.06948 28.1568 0.995545 28.0294 0.939009 27.9034C-0.0452622 25.9019 -0.26462 23.6039 0.322908 21.4492C0.469555 20.9141 0.663626 20.3934 0.902768 19.8935C1.1927 19.331 1.33766 19.0834 1.53336 18.7289C1.90882 18.058 2.27703 17.3827 2.66409 16.7191L4.98498 12.7229L7.3479 8.76779C8.151 7.44941 8.95701 6.14568 9.78766 4.85073L10.0964 4.36292L10.4356 3.8429C10.7302 3.39539 11.0629 2.97482 11.4301 2.58603C12.159 1.82304 13.0223 1.20405 13.9757 0.760804C14.9104 0.32325 15.9189 0.0692265 16.9475 0.0122567C17.4115 -0.0117451 17.8767 -0.000485536 18.3391 0.0459459L19.4829 0.144094L24.0609 0.576229C27.1051 0.869203 30.1625 1.14753 33.214 1.3658C33.9765 1.41414 34.739 1.47127 35.503 1.51228C35.9069 1.52702 36.3094 1.5696 36.7076 1.63973C37.1082 1.72088 37.5022 1.83253 37.8862 1.97372C39.4029 2.55247 40.6678 3.65527 41.4567 5.08657ZM40.987 5.35904C40.0331 4.11097 38.9981 3.16173 37.6194 2.76329C36.9294 2.5697 36.2102 2.50516 35.4972 2.57285C34.7332 2.60947 33.9707 2.6666 33.2082 2.71934C30.1567 2.9376 27.1051 3.21007 24.0551 3.50744L19.4771 3.9469C18.7523 4.02014 17.8361 4.0553 17.4476 4.17542C16.9581 4.30208 16.494 4.51373 16.0762 4.80092C15.6763 5.0764 15.3258 5.4187 15.0397 5.81315C14.9031 6.00639 14.7832 6.21127 14.6817 6.42547L14.1801 7.41572C13.4857 8.79123 12.7652 10.1506 12.0433 11.51L9.8297 15.5589L7.56245 19.5771C7.18844 20.248 6.79269 20.9072 6.40273 21.5722C5.9345 22.3633 5.80693 22.5713 5.66921 23.0181C5.40076 23.8541 5.43884 24.7598 5.77648 25.5699C5.79388 25.6226 5.82287 25.671 5.84462 25.7164C5.86636 25.7618 5.87506 25.7955 5.9316 25.8965L6.20268 26.4063L6.7434 27.4317L7.82628 29.4694L10.0008 33.5461C11.4369 36.2659 12.8943 38.9754 14.3729 41.6747C14.8629 42.5808 15.6619 43.2763 16.6213 43.6317C16.8629 43.7187 17.1111 43.7853 17.3635 43.831C17.4911 43.8471 17.6187 43.872 17.7477 43.8778L17.9405 43.891H18.2217L29.6638 44.121L34.2403 44.2338C34.9825 44.2441 35.8552 44.2953 36.3307 44.2543C36.8958 44.2062 37.4475 44.0543 37.9587 43.8061C38.4773 43.5511 38.9463 43.2037 39.3431 42.7807C39.541 42.5653 39.7199 42.333 39.878 42.0863L42.8425 37.1687C44.4603 34.5495 46.0767 31.9333 47.7235 29.3346L48.9615 27.3878C49.4051 26.7037 49.7428 26.1939 49.9588 25.5391C50.4793 23.9629 50.0937 22.5054 49.8443 21.5019C49.7547 21.1537 49.6443 20.8113 49.5138 20.4765C49.3764 20.1317 49.2146 19.7973 49.0296 19.476L47.9467 17.3344C47.7858 16.9989 43.8906 9.15892 40.987 5.35904Z" fill="#CC0A26"/>
<path d="M22.2358 21.8242C22.2925 21.8422 22.3507 21.855 22.4098 21.8623C22.3675 21.8884 22.324 21.9124 22.2793 21.9341C22.2126 21.9678 20.3194 23.021 20.0004 23.2129C19.1481 23.7285 13.0204 28.0704 4.77915 34.2375L2.54234 30.5856C7.59076 26.7085 13.0231 23.3703 18.7523 20.6245C19.6279 20.2055 20.4977 19.8061 21.3617 19.4262C21.1987 19.6865 21.1122 19.9883 21.1123 20.2963C21.1134 20.6389 21.2231 20.9721 21.4253 21.2471C21.6275 21.522 21.9115 21.7243 22.2358 21.8242Z" fill="#CC0A26"/>
<path d="M45.262 13.3997C38.8346 14.7884 32.5845 16.912 26.6326 19.7294C25.8469 20.1 25.0568 20.4897 24.2551 20.894L24.1638 20.9438C24.2595 20.7247 24.3057 20.4868 24.2989 20.2473C24.2922 20.0079 24.2327 19.773 24.1248 19.5597C24.0169 19.3465 23.8634 19.1602 23.6753 19.0144C23.4872 18.8687 23.2693 18.7671 23.0374 18.7172C23.1824 18.6615 23.3143 18.6015 23.4549 18.5473C24.2174 18.2411 24.9698 17.9613 25.7178 17.6889C32.016 15.3914 38.5881 13.9491 45.262 13.3997Z" fill="#CC0A26"/>
<path d="M22.7069 18.6835C22.4516 18.6828 22.1998 18.744 21.9728 18.862C21.7458 18.98 21.5501 19.1514 21.4022 19.3617C21.137 18.5136 20.8876 17.6771 20.66 16.8627C19.6077 13.0485 18.8602 9.15501 18.4247 5.21987C19.3436 9.01002 20.5251 12.7302 21.9604 16.3529C22.2633 17.1249 22.5823 17.913 22.9287 18.7055C22.8557 18.6905 22.7814 18.6832 22.7069 18.6835Z" fill="#CC0A26"/>
<path d="M39.1184 43.3022C37.9282 43.8222 36.7424 44.3466 35.5508 44.8725C30.7525 39.2505 26.8292 32.923 23.9159 26.1075C23.6506 25.4893 23.4028 24.8829 23.1636 24.2749C22.8504 23.4868 22.5576 22.7046 22.2938 21.9311C22.2778 21.8916 22.2619 21.8594 22.2503 21.8213C22.307 21.8393 22.3652 21.852 22.4242 21.8594C22.5194 21.8807 22.6167 21.8915 22.7142 21.8916C22.9792 21.8925 23.2403 21.8258 23.4731 21.6978C23.706 21.5698 23.9031 21.3845 24.0464 21.1592C24.3987 21.9077 24.7712 22.6694 25.1612 23.4341C25.4598 24.0362 25.7787 24.6485 26.1092 25.2623C29.6361 31.831 34.0107 37.8974 39.1184 43.3022Z" fill="#CC0A26"/>
<path d="M26.6326 19.7294C26.5326 18.9732 26.2145 18.2635 25.7178 17.6889C25.3485 17.246 24.8874 16.8905 24.3671 16.6475C23.8468 16.4045 23.2801 16.2799 22.7069 16.2826C22.4583 16.2813 22.2102 16.3048 21.9662 16.3529C21.5039 16.4403 21.0616 16.6131 20.6615 16.8627C20.0736 17.2164 19.5869 17.7185 19.2491 18.3197C18.9114 18.9209 18.7341 19.6006 18.7349 20.2919C18.7349 20.4018 18.7349 20.5117 18.7508 20.6201C18.8365 21.6213 19.2893 22.5541 20.0204 23.2354C20.7515 23.9167 21.7081 24.2974 22.7026 24.3028C22.8528 24.3017 23.0028 24.2924 23.152 24.2749C23.8824 24.1944 24.5752 23.9059 25.1496 23.4429C25.624 23.0695 26.0077 22.5915 26.2715 22.0454C26.5353 21.4993 26.6722 20.8996 26.6717 20.2919C26.6748 20.1036 26.6617 19.9154 26.6326 19.7294ZM22.7069 21.8945C22.6094 21.8944 22.5122 21.8836 22.417 21.8623C22.358 21.855 22.2998 21.8422 22.243 21.8242C21.9186 21.7236 21.6347 21.5204 21.433 21.2446C21.2312 20.9688 21.1224 20.6349 21.1225 20.2919C21.1223 19.9839 21.2088 19.6821 21.3718 19.4218L21.4153 19.3617C21.5632 19.1514 21.7588 18.98 21.9859 18.862C22.2129 18.744 22.4647 18.6828 22.72 18.6835C22.7964 18.6828 22.8727 18.6901 22.9476 18.7055C22.9802 18.7064 23.0127 18.7103 23.0447 18.7172C23.2765 18.7671 23.4944 18.8687 23.6825 19.0144C23.8706 19.1602 24.0242 19.3464 24.1321 19.5597C24.24 19.773 24.2995 20.0079 24.3062 20.2473C24.313 20.4867 24.2668 20.7247 24.1711 20.9438C24.1349 21.0214 24.0932 21.0964 24.0464 21.1679C23.9018 21.3933 23.7032 21.578 23.469 21.7051C23.2348 21.8321 22.9727 21.8973 22.7069 21.8945Z" fill="#CC0A26"/>
<path d="M74.0549 6.52215C74.1147 6.58445 74.1613 6.65839 74.192 6.73947C74.2226 6.82056 74.2367 6.90711 74.2332 6.99384V10.1829L76.5671 11.3548C76.6506 11.3946 76.7205 11.4587 76.768 11.5387C76.8155 11.6188 76.8384 11.7113 76.8338 11.8045V16.5902C76.8351 16.673 76.82 16.7552 76.7897 16.8322C76.7593 16.9091 76.7142 16.9792 76.657 17.0385L74.7 19.016C74.6382 19.0763 74.565 19.1234 74.4848 19.1544C74.4046 19.1853 74.319 19.1996 74.2332 19.1962H58.5567C58.1348 19.1962 57.9348 18.9706 57.9348 18.5224V4.31898C57.9348 3.8927 58.1348 3.66858 58.5567 3.66858H70.7627C70.8797 3.66525 70.9961 3.68763 71.1037 3.73416C71.2113 3.7807 71.3077 3.85028 71.3861 3.93811L74.0549 6.52215ZM69.5856 6.18522C69.5303 6.13026 69.4642 6.08775 69.3914 6.06048C69.3187 6.03321 69.2411 6.02181 69.1638 6.02702H62.5389C62.2939 6.02702 62.1605 6.16179 62.1605 6.45476V10.2327H70.9642V7.75703C70.963 7.68111 70.9468 7.6062 70.9164 7.53674C70.886 7.46729 70.8421 7.40472 70.7874 7.35273L69.5856 6.18522ZM71.4093 11.8235H62.1605V16.4071C62.1605 16.7001 62.2939 16.8334 62.5606 16.8334H71.3643C71.4714 16.8347 71.575 16.7949 71.6543 16.722L72.6096 15.7772C72.6556 15.7303 72.6912 15.674 72.7142 15.6122C72.7372 15.5503 72.747 15.4843 72.7429 15.4183V12.6775C72.7462 12.6336 72.7378 12.5896 72.7184 12.5502C72.699 12.5107 72.6694 12.4773 72.6328 12.4534L71.4093 11.8235Z" fill="#CC0A26"/>
<path d="M96.4418 16.0922C96.4441 16.1775 96.4273 16.2623 96.3927 16.3401C96.358 16.418 96.3064 16.487 96.2417 16.5419L93.8411 18.8754C93.615 19.0802 93.3214 19.1925 93.0177 19.1904H81.9018C81.5982 19.1923 81.3047 19.08 81.0784 18.8754L78.6778 16.5389C78.6131 16.484 78.5615 16.4151 78.5268 16.3372C78.4922 16.2593 78.4754 16.1746 78.4777 16.0892V4.02747C78.4716 3.97886 78.4765 3.92947 78.4922 3.8831C78.5079 3.83673 78.5339 3.79459 78.5682 3.75994C78.6025 3.72529 78.6441 3.69904 78.69 3.6832C78.7359 3.66736 78.7848 3.66236 78.8329 3.66857H82.3686C82.4152 3.66479 82.4621 3.67167 82.5058 3.6887C82.5494 3.70573 82.5887 3.73247 82.6208 3.76695C82.6528 3.80142 82.6767 3.84274 82.6908 3.88784C82.7049 3.93294 82.7087 3.98067 82.702 4.02747V15.2616C82.7028 15.3171 82.7151 15.3718 82.7381 15.4223C82.761 15.4728 82.7942 15.5178 82.8354 15.5545L84.1024 16.7264C84.1388 16.7666 84.1839 16.7976 84.2343 16.8169C84.2846 16.8362 84.3387 16.8434 84.3923 16.8378H90.5953C90.6489 16.8437 90.7032 16.8367 90.7536 16.8174C90.804 16.798 90.8491 16.7669 90.8853 16.7264L92.1523 15.5545C92.1935 15.5178 92.2266 15.4728 92.2496 15.4223C92.2726 15.3718 92.2848 15.3171 92.2856 15.2616V4.02747C92.279 3.98067 92.2828 3.93294 92.2969 3.88784C92.3109 3.84274 92.3349 3.80142 92.3669 3.76695C92.3989 3.73247 92.4382 3.70573 92.4819 3.6887C92.5255 3.67167 92.5724 3.66479 92.6191 3.66857H96.0895C96.1377 3.66206 96.1867 3.66685 96.2327 3.68258C96.2787 3.69831 96.3205 3.72456 96.3549 3.75928C96.3893 3.794 96.4152 3.83626 96.4308 3.88277C96.4464 3.92929 96.4511 3.9788 96.4447 4.02747L96.4418 16.0922Z" fill="#CC0A26"/>
<path d="M114.429 5.69156C114.437 5.73752 114.433 5.78464 114.419 5.82899C114.405 5.87335 114.381 5.91367 114.348 5.94661C114.315 5.97956 114.275 6.00417 114.232 6.0184C114.188 6.03264 114.141 6.0361 114.096 6.02848H104.445C104.35 6.01869 104.255 6.03193 104.166 6.06709C104.077 6.10225 103.998 6.15832 103.935 6.23063L102.758 7.35273C102.685 7.43256 102.645 7.53728 102.646 7.6457V14.9481C102.643 15.0195 102.656 15.0906 102.683 15.1566C102.71 15.2226 102.751 15.2819 102.803 15.3304L104.252 16.7001C104.296 16.7444 104.348 16.7793 104.405 16.8025C104.463 16.8256 104.524 16.8367 104.586 16.8348H111.234C111.479 16.8348 111.591 16.7001 111.591 16.4086V10.9021C111.591 10.656 111.701 10.5432 111.924 10.5432H114.645C114.89 10.5432 115.002 10.656 115.002 10.9021V18.5194C115.002 18.9677 114.778 19.1933 114.357 19.1933H102.178C101.974 19.1987 101.776 19.1265 101.623 18.9911L98.6206 16.1376C98.555 16.0736 98.5034 15.9966 98.4689 15.9113C98.4345 15.8261 98.418 15.7345 98.4206 15.6424V6.49871C98.418 6.40688 98.4345 6.31553 98.469 6.23051C98.5034 6.1455 98.5551 6.0687 98.6206 6.00505L100.778 3.91467C100.853 3.83654 100.943 3.7745 101.043 3.73223C101.143 3.68996 101.25 3.66831 101.358 3.66857H114.097C114.319 3.66857 114.43 3.77991 114.43 4.02747L114.429 5.69156Z" fill="#CC0A26"/>
</svg>
